<svg id="weather-rain" xmlns="http://www.w3.org/2000/svg" viewBox="0 0 501 501"><defs><style>.bg{fill:none;}.rain{fill:#333a44;}.raindrop{fill:#8ddcff;}</style></defs><rect class="bg" width="501" height="501"/><path class="rain" d="M501.85,228.32a94,94,0,0,1-88.33,93.9c-1.91.11-3.82.17-5.73.17H95.17a94.07,94.07,0,0,1,0-188.13h11.71a94,94,0,0,1,83.74-51.18c.88,0,1.74,0,2.63,0a94.08,94.08,0,1,1,180.93,51.15h33.61c1.91,0,3.82.06,5.73.17A94,94,0,0,1,501.85,228.32Z" transform="translate(-0.85)"/><rect class="raindrop" x="163.18" y="337.6" width="22.13" height="96.83" rx="11.07"/><rect class="raindrop" x="212.98" y="384.63" width="22.13" height="96.83" rx="11.07"/><rect class="raindrop" x="329.17" y="345.9" width="22.13" height="96.83" rx="11.07"/><rect class="raindrop" x="378.97" y="392.93" width="22.13" height="96.83" rx="11.07"/><rect class="raindrop" x="271.08" y="354.2" width="22.13" height="49.8" rx="11.07"/><rect class="raindrop" x="96.79" y="359.73" width="22.13" height="49.8" rx="11.07"/></svg>