<svg id="weather-clouds" xmlns="http://www.w3.org/2000/svg" viewBox="0 0 501 501"><defs><style>.bg{fill:none;}.clouds-light{fill:#dfe9ef;}.clouds-dark{fill:#c8d5db;}</style></defs><rect class="bg" width="501" height="501"/><path class="clouds-light" d="M458.77,275.32A85.94,85.94,0,0,1,378,361.13c-1.75.11-3.49.16-5.24.16H87.08a86,86,0,0,1,0-171.94h10.7a85.93,85.93,0,0,1,76.53-46.78c.81,0,1.6,0,2.41,0a86,86,0,1,1,165.36,46.76H372.8c1.75,0,3.49.05,5.24.15A86,86,0,0,1,458.77,275.32Z" transform="translate(-0.85)"/><path class="clouds-dark" d="M501.85,338.12a86,86,0,0,1-80.73,85.81c-1.75.11-3.49.16-5.24.16H130.16a86,86,0,0,1,0-171.94h10.69a86,86,0,0,1,76.54-46.78c.81,0,1.6,0,2.41,0a86,86,0,1,1,165.36,46.76h30.72c1.75,0,3.49,0,5.24.15A86,86,0,0,1,501.85,338.12Z" transform="translate(-0.85)"/><path class="clouds-light" d="M378,189.35v.15c-1.75-.1-3.49-.15-5.24-.15Z" transform="translate(-0.85)"/><path class="clouds-light" d="M372.8,361.29c1.75,0,3.49-.05,5.24-.16v.16Z" transform="translate(-0.85)"/></svg>